<?xml version="1.0" encoding="utf-8"?>
<!-- Generator: Adobe Illustrator 27.0.0, SVG Export Plug-In . SVG Version: 6.00 Build 0)  -->
<svg version="1.1" id="Layer_1" xmlns="http://www.w3.org/2000/svg" xmlns:xlink="http://www.w3.org/1999/xlink" x="0px" y="0px"
	 viewBox="0 0 512 512" style="enable-background:new 0 0 512 512;" xml:space="preserve">
<style type="text/css">
	.st0{fill:#003B57;}
	.st1{fill:#0F80CC;}
	.st2{fill:url(#XMLID_00000018947990771272072020000001277732129088635538_);}
</style>
<g id="XMLID_1_">
	<path id="XMLID_12_" class="st0" d="M194.56,254.45c-6.87,0-12.34,1.96-16.69,6.03c-4.21,4.07-6.45,9.4-6.45,15.85
		c0,3.37,0.56,6.45,1.54,9.26c1.12,2.8,2.66,5.47,4.91,7.71c2.24,2.38,6.59,5.61,13.18,9.68c8.13,4.91,13.32,8.98,15.85,12.06
		c2.52,3.09,3.79,6.45,3.79,9.82c0,4.63-1.54,8.27-4.63,10.94c-3.09,2.8-7.29,4.07-12.34,4.07c-5.47,0-10.1-1.96-14.16-5.75
		c-4.07-3.79-6.03-8.83-6.17-15.15h-2.52v22.86h2.52c0.7-2.1,1.82-3.23,3.23-3.23c0.7,0,2.24,0.42,4.63,1.26
		c5.89,2.1,10.8,3.09,14.72,3.09c6.59,0,12.2-2.38,16.97-7.01c4.77-4.77,7.01-10.38,7.01-16.97c0-5.19-1.54-9.68-4.63-13.74
		c-3.09-3.93-9.12-8.69-17.95-14.02c-7.71-4.63-12.62-8.41-15.01-11.36c-2.24-2.94-3.51-6.17-3.51-9.68c0-3.79,1.4-6.87,4.21-9.26
		c2.8-2.24,6.45-3.51,10.94-3.51c5.19,0,9.4,1.54,12.76,4.63c3.37,3.09,5.33,7.29,5.89,12.76h2.52v-19.77h-2.38
		c-0.28,0.98-0.56,1.68-0.84,1.96c-0.28,0.28-0.7,0.42-1.4,0.42c-0.84,0-2.24-0.28-4.35-0.98
		C202.41,255.29,198.34,254.45,194.56,254.45z M277.02,254.45c-8.27,0-15.85,1.96-22.72,5.89c-6.87,3.93-12.2,9.4-16.27,16.27
		c-3.93,6.87-6.03,14.3-6.03,22.16c0,10.52,3.51,19.91,10.38,28.05c7.01,8.27,15.29,13.32,24.96,15.29
		c2.24,1.12,5.33,4.07,9.54,8.98c4.63,5.47,8.55,9.4,11.78,11.64c3.23,2.38,6.73,4.07,10.38,5.19c3.65,1.12,7.71,1.68,12.06,1.68
		c5.19,0,9.96-0.84,14.02-2.8l-0.98-2.24c-2.38,0.84-4.91,1.26-7.71,1.26c-3.65,0-7.29-1.26-11.08-3.65
		c-3.65-2.38-8.27-7.01-13.88-13.88c-2.52-3.23-4.35-5.33-5.33-6.17c10.52-2.1,19.21-7.15,26.08-15.43
		c6.73-8.13,10.24-17.53,10.24-28.05c0-12.48-4.49-22.86-13.18-31.41C300.57,258.8,289.78,254.45,277.02,254.45z M328.34,254.45
		l0.14,2.66c5.47,0,8.69,1.68,9.4,4.91c0.28,1.12,0.42,3.37,0.42,6.45v59.6c0,4.49-0.7,7.29-1.96,8.55s-3.23,1.96-6.31,2.24
		l-0.14,2.66H385l1.4-13.46h-2.52c-0.7,3.65-2.38,6.31-5.05,7.85c-2.66,1.54-7.29,2.24-14.02,2.24h-5.05
		c-6.03,0-9.54-2.24-10.52-6.59c-0.14-0.84-0.28-1.82-0.28-2.8l0.28-60.3c0-4.49,0.56-7.43,1.68-8.83c1.12-1.4,3.37-2.24,6.31-2.52
		l-0.14-2.66H328.34L328.34,254.45z M277.86,257.68c9.4,0,16.97,3.65,23,11.08c5.89,7.43,8.83,17.67,8.83,30.57
		c0,12.2-2.94,22.02-8.98,29.45c-5.89,7.43-13.88,11.08-23.7,11.08c-9.4,0-17.11-3.79-23-11.36c-5.89-7.57-8.83-17.53-8.83-29.73
		c0-12.48,2.94-22.44,8.83-30.01C259.91,261.46,267.9,257.68,277.86,257.68z M404.77,270.58c-1.4,0-2.38,0.42-3.09,1.4
		c-0.84,0.98-0.98,1.96-0.7,3.37c0.28,1.26,0.98,2.38,2.1,3.37c1.12,0.98,2.38,1.4,3.79,1.4c1.26,0,2.24-0.56,2.94-1.4
		c0.7-0.98,0.98-2.1,0.7-3.37c-0.28-1.4-0.98-2.38-2.1-3.37C407.29,271,406.03,270.58,404.77,270.58z M441.09,279.69
		c-2.24,8.83-7.29,13.6-14.86,14.3l0.14,2.52h8.83l-0.14,29.73c0,5.05,0.14,8.55,0.56,10.24c0.84,4.07,3.51,6.17,8.13,6.17
		c6.59,0,13.32-3.93,20.61-11.92l-2.1-1.82c-5.19,5.19-9.82,7.85-13.74,7.85c-2.52,0-3.93-1.4-4.49-4.21
		c-0.14-0.7-0.28-1.4-0.28-2.38l0.14-33.8h13.6l-0.14-4.07H443.9v-12.76h-2.8V279.69z M493.54,290.91
		c-7.57,0-13.74,3.65-18.51,10.94c-4.77,7.29-6.31,15.43-4.35,24.4c1.12,5.19,3.37,9.26,6.73,12.2c3.37,2.8,7.57,4.35,12.76,4.35
		c4.77,0,11.36-1.26,14.16-3.65s5.33-6.31,7.71-11.78l-1.96-1.96c-3.79,7.01-11.5,10.52-17.25,10.52c-7.99,0-12.76-4.35-14.58-13.04
		c-0.28-1.12-0.42-2.24-0.56-3.51c9.4-1.54,16.55-4.07,21.46-7.99c4.77-3.79,9.68-7.85,8.69-12.2c-0.56-2.52-1.82-4.49-3.93-6.03
		C501.95,291.75,496.48,290.91,493.54,290.91z M410.66,291.19l-16.41,3.79v2.94l5.61-0.7c2.8,0,4.35,1.26,4.91,3.65
		c0.14,0.84,0.28,1.96,0.28,3.51l-0.14,26.79c0,3.65-0.42,5.89-1.26,6.45c-0.84,0.7-3.09,0.98-6.59,0.98l-0.14,2.52h25.94v-2.52
		c-3.65,0-5.89-0.28-7.01-0.84c-0.98-0.56-1.68-1.54-2.1-3.09c-0.28-1.12-0.28-3.09-0.42-5.61l0.14-37.72h-2.8V291.19z
		 M489.47,296.24c1.54,0,3.09,0.56,4.63,1.82c1.54,1.26,2.38,2.52,2.8,3.93c1.54,7.15-4.77,12.06-19.07,14.72
		c-0.42-5.19,0.56-9.96,2.8-14.16C482.88,298.35,485.83,296.24,489.47,296.24z"/>
	<path id="XMLID_13_" class="st1" d="M157.96,152.36H17.16c-9.4,0-17.11,7.71-17.11,17.11v155.24c0,9.4,7.71,17.11,17.11,17.11h92.7
		C108.87,295.82,124.58,206.21,157.96,152.36z"/>
	
		<linearGradient id="XMLID_00000176726409242651239830000001446248796179561362_" gradientUnits="userSpaceOnUse" x1="-341.6123" y1="574.5098" x2="-340.6122" y2="574.5098" gradientTransform="matrix(0 144.1608 136.5305 0 -78359.1797 49407.6602)">
		<stop  offset="0" style="stop-color:#97D9F6"/>
		<stop  offset="0.9202" style="stop-color:#0F80CC"/>
		<stop  offset="1" style="stop-color:#0F80CC"/>
	</linearGradient>
	<path id="XMLID_14_" style="fill:url(#XMLID_00000176726409242651239830000001446248796179561362_);" d="M152.91,157.41H17.16
		c-6.73,0-12.2,5.47-12.2,12.2v143.88c30.71-11.78,76.85-22.02,108.68-21.46C120.23,258.38,139.02,192.75,152.91,157.41z"/>
	<path id="XMLID_15_" class="st0" d="M190.77,147.31c-9.68-8.55-21.32-5.19-32.82,5.05c-1.68,1.54-3.37,3.23-5.05,5.05
		c-19.77,20.9-38,59.6-43.61,89.19c2.24,4.49,3.93,10.24,5.05,14.58c0.28,1.12,0.56,2.24,0.7,3.09c0.56,2.1,0.7,3.51,0.7,3.51
		s-0.14-0.7-0.84-2.8c-0.14-0.42-0.28-0.84-0.42-1.4c-0.14-0.28-0.14-0.42-0.28-0.7c-1.26-2.94-4.91-9.26-6.45-12.06
		c-1.4,3.93-2.52,7.57-3.51,10.94c4.49,8.27,7.29,22.44,7.29,22.44s-0.28-0.98-1.4-4.07c-0.98-2.8-6.03-11.64-7.15-13.74
		c-2.1,7.57-2.8,12.62-2.1,13.88c1.4,2.38,2.8,6.45,3.93,11.08c2.66,10.24,4.49,22.86,4.49,22.86s0,0.84,0.14,2.1
		c-0.42,8.69-0.14,17.53,0.56,25.66c0.84,10.66,2.52,19.91,4.63,24.82l1.4-0.84c-3.09-9.68-4.35-22.44-3.79-37.02
		c0.84-22.44,6.03-49.5,15.57-77.55c16.13-42.49,38.42-76.71,58.9-92.98c-18.65,16.83-43.89,71.24-51.47,91.43
		c-8.41,22.58-14.44,43.75-18.09,64.09c6.17-19.07,26.36-27.21,26.36-27.21s9.82-12.2,21.46-29.59c-6.87,1.54-18.23,4.35-22.02,5.89
		c-5.61,2.38-7.15,3.23-7.15,3.23s18.23-11.08,33.8-16.13C190.91,216.31,214.33,168.21,190.77,147.31"/>
</g>
</svg>
